<?xml version="1.0" encoding="UTF-8"?>
<svg version="1.1" xmlns="http://www.w3.org/2000/svg" width="768" height="768">
<path d="M0 0 C1.23845673 0.00149048 2.47691345 0.00298096 3.75289917 0.0045166 C21.53992337 0.04304123 38.91269713 0.47849808 56.5 3.3125 C58.42574722 3.59398293 60.35152855 3.87523255 62.27734375 4.15625 C97.93742257 9.63098354 132.96487151 20.8038803 165.5 36.3125 C166.85037354 36.95251953 166.85037354 36.95251953 168.22802734 37.60546875 C199.19211477 52.39089158 227.76094676 71.63701119 253.5 94.3125 C254.21293213 94.93785645 254.92586426 95.56321289 255.66040039 96.20751953 C262.13432234 101.953312 268.32311533 107.94938772 274.44116211 114.06835938 C276.05890192 115.6839068 277.68450636 117.29125034 279.31054688 118.8984375 C285.82615798 125.37895555 291.80589127 132.08511247 297.5 139.3125 C298.524707 140.56726211 299.55173333 141.82013708 300.58203125 143.0703125 C312.48248572 157.68576427 322.9878225 173.04550389 332.5 189.3125 C332.91459473 190.01922852 333.32918945 190.72595703 333.75634766 191.45410156 C359.6695852 235.96776448 376.15686571 285.2171698 382.5 336.3125 C382.58720306 336.99195679 382.67440613 337.67141357 382.76425171 338.37145996 C384.66218175 353.51065074 384.85892714 368.56976915 384.8125 383.8125 C384.80976578 385.67217911 384.80976578 385.67217911 384.80697632 387.56942749 C384.76294091 405.34036656 384.43681778 422.75123857 381.5 440.3125 C381.32307617 441.41577637 381.14615234 442.51905273 380.96386719 443.65576172 C374.98382213 480.30548517 364.48814337 515.7713913 348.5 549.3125 C348.07332031 550.21274902 347.64664063 551.11299805 347.20703125 552.04052734 C332.47097522 582.9012293 313.29386626 611.80932721 290.5 637.3125 C289.71367188 638.2096875 288.92734375 639.106875 288.1171875 640.03125 C282.14012766 646.71940699 275.84233918 653.09752405 269.52529907 659.46243286 C268.52569029 660.47008155 267.52756645 661.47920601 266.53109741 662.48995972 C259.87307322 669.23322957 252.93610253 675.4239345 245.5 681.3125 C244.28027638 682.31364009 243.06250937 683.31717403 241.84765625 684.32421875 C227.27839362 696.24789522 211.85656841 706.9906064 195.5 716.3125 C194.84451172 716.69293457 194.18902344 717.07336914 193.51367188 717.46533203 C152.70682026 741.12750405 108.2253476 756.92798082 61.6875 764.5625 C60.77154053 764.71364258 59.85558105 764.86478516 58.91186523 765.02050781 C39.61314373 767.99548254 20.44057888 768.68606141 0.9375 768.625 C-0.3014502 768.62284485 -1.54040039 768.6206897 -2.81689453 768.61846924 C-20.55697355 768.56892394 -37.9676349 768.25882679 -55.5 765.3125 C-56.73862793 765.11382324 -57.97725586 764.91514648 -59.25341797 764.71044922 C-130.52687985 753.16804337 -198.5065109 722.58937944 -252.5 674.3125 C-253.22034424 673.67828125 -253.94068848 673.0440625 -254.68286133 672.390625 C-261.14900037 666.65274533 -267.33093702 660.66778941 -273.44116211 654.55664062 C-275.05890192 652.9410932 -276.68450636 651.33374966 -278.31054688 649.7265625 C-284.82632106 643.2458197 -290.80287382 636.53769933 -296.5 629.3125 C-297.50084453 628.09253385 -298.50435758 626.87474699 -299.51171875 625.66015625 C-311.43539522 611.09089362 -322.1781064 595.66906841 -331.5 579.3125 C-331.88043457 578.65701172 -332.26086914 578.00152344 -332.65283203 577.32617188 C-356.31500405 536.51932026 -372.11548082 492.0378476 -379.75 445.5 C-379.97671387 444.12606079 -379.97671387 444.12606079 -380.20800781 442.72436523 C-383.18302797 423.42534902 -383.87211513 404.25329236 -383.8125 384.75 C-383.81067719 383.51271149 -383.80885437 382.27542297 -383.80697632 381.00064087 C-383.7629156 363.24819169 -383.43376664 345.8555166 -380.5 328.3125 C-380.32307617 327.20922363 -380.14615234 326.10594727 -379.96386719 324.96923828 C-373.98382213 288.31951483 -363.48814337 252.8536087 -347.5 219.3125 C-347.07332031 218.41225098 -346.64664063 217.51200195 -346.20703125 216.58447266 C-331.42160842 185.62038523 -312.17548881 157.05155324 -289.5 131.3125 C-288.87464355 130.59956787 -288.24928711 129.88663574 -287.60498047 129.15209961 C-281.859188 122.67817766 -275.86311228 116.48938467 -269.74414062 110.37133789 C-268.1285932 108.75359808 -266.52124966 107.12799364 -264.9140625 105.50195312 C-258.43354445 98.98634202 -251.72738753 93.00660873 -244.5 87.3125 C-243.24523789 86.287793 -241.99236292 85.26076667 -240.7421875 84.23046875 C-226.12673573 72.33001428 -210.76699611 61.8246775 -194.5 52.3125 C-193.43990723 51.69060791 -193.43990723 51.69060791 -192.35839844 51.05615234 C-151.20314227 27.09798176 -106.48930146 11.74642071 -59.5625 4.0625 C-58.18179321 3.83578613 -58.18179321 3.83578613 -56.77319336 3.60449219 C-53.68664642 3.1276932 -50.59790275 2.70932429 -47.5 2.3125 C-46.82870056 2.22529694 -46.15740112 2.13809387 -45.46575928 2.04824829 C-30.32066902 0.14016081 -15.24899741 -0.04531459 0 0 Z " fill="#FDDD57" transform="translate(383.5,-0.3125)"/>
<path d="M0 0 C166.32 0 332.64 0 504 0 C508.50568541 9.01137081 508.50568541 9.01137081 509.81640625 12.953125 C510.10427002 13.81309082 510.39213379 14.67305664 510.6887207 15.55908203 C510.97706787 16.44708496 511.26541504 17.33508789 511.5625 18.25 C511.86696045 19.18312012 512.1714209 20.11624023 512.48510742 21.07763672 C526.11086596 63.28846594 521.84818535 109.11055581 502.16894531 148.75341797 C494.18483758 164.09797923 482.93861666 177.59058676 471 190 C470.48002441 190.54188965 469.96004883 191.0837793 469.42431641 191.64208984 C462.34193037 198.98008079 455.04709894 205.71511387 447 212 C445.74121577 213.02093847 444.48347808 214.0431681 443.2265625 215.06640625 C419.43738995 234.23006079 393.92010544 250.00666513 365 260 C363.79633789 260.41958984 363.79633789 260.41958984 362.56835938 260.84765625 C334.77240633 270.35015382 305.21009189 273.37565485 275.9855957 273.42553711 C272.70122998 273.4374502 269.41873933 273.48685823 266.13476562 273.53710938 C251.77001847 273.64611458 238.82694124 271.83259267 225 268 C224.12771255 267.76547119 223.25542511 267.53094238 222.35670471 267.28930664 C180.66852551 256.07717326 143.0052471 233.85477411 112 204 C111.47631836 203.49823242 110.95263672 202.99646484 110.41308594 202.47949219 C103.39221383 195.71945743 97.0032208 188.69561815 91 181 C89.81664062 179.52466797 89.81664062 179.52466797 88.609375 178.01953125 C67.66744177 151.68258474 53.2496014 121.53197098 42 90 C41.70996094 89.20239258 41.41992188 88.40478516 41.12109375 87.58300781 C33.58073672 66.77417228 25.93635026 42.33664459 27 20 C25.56720703 20.01740234 25.56720703 20.01740234 24.10546875 20.03515625 C16.33431699 20.08939161 8.73195186 19.90018566 1 19 C0.82715323 17.52154276 0.6621554 16.04216801 0.5 14.5625 C0.4071875 13.73878906 0.314375 12.91507812 0.21875 12.06640625 C-0.06749911 8.05380714 0 4.02279631 0 0 Z " fill="#861944" transform="translate(91,424)"/>
<path d="M0 0 C1.23845673 0.00149048 2.47691345 0.00298096 3.75289917 0.0045166 C21.53992337 0.04304123 38.91269713 0.47849808 56.5 3.3125 C58.42574722 3.59398293 60.35152855 3.87523255 62.27734375 4.15625 C97.93742257 9.63098354 132.96487151 20.8038803 165.5 36.3125 C166.85037354 36.95251953 166.85037354 36.95251953 168.22802734 37.60546875 C199.19211477 52.39089158 227.76094676 71.63701119 253.5 94.3125 C254.21293213 94.93785645 254.92586426 95.56321289 255.66040039 96.20751953 C262.13432234 101.953312 268.32311533 107.94938772 274.44116211 114.06835938 C276.05890192 115.6839068 277.68450636 117.29125034 279.31054688 118.8984375 C285.82615798 125.37895555 291.80589127 132.08511247 297.5 139.3125 C298.524707 140.56726211 299.55173333 141.82013708 300.58203125 143.0703125 C312.48248572 157.68576427 322.9878225 173.04550389 332.5 189.3125 C332.91459473 190.01922852 333.32918945 190.72595703 333.75634766 191.45410156 C359.6695852 235.96776448 376.15686571 285.2171698 382.5 336.3125 C382.58720306 336.99195679 382.67440613 337.67141357 382.76425171 338.37145996 C384.66218175 353.51065074 384.85892714 368.56976915 384.8125 383.8125 C384.80976578 385.67217911 384.80976578 385.67217911 384.80697632 387.56942749 C384.76294091 405.34036656 384.43681778 422.75123857 381.5 440.3125 C381.32307617 441.41577637 381.14615234 442.51905273 380.96386719 443.65576172 C374.98382213 480.30548517 364.48814337 515.7713913 348.5 549.3125 C348.07332031 550.21274902 347.64664063 551.11299805 347.20703125 552.04052734 C332.47097522 582.9012293 313.29386626 611.80932721 290.5 637.3125 C289.71367188 638.2096875 288.92734375 639.106875 288.1171875 640.03125 C282.14012766 646.71940699 275.84233918 653.09752405 269.52529907 659.46243286 C268.52569029 660.47008155 267.52756645 661.47920601 266.53109741 662.48995972 C259.87307322 669.23322957 252.93610253 675.4239345 245.5 681.3125 C244.28027638 682.31364009 243.06250937 683.31717403 241.84765625 684.32421875 C227.27839362 696.24789522 211.85656841 706.9906064 195.5 716.3125 C194.84451172 716.69293457 194.18902344 717.07336914 193.51367188 717.46533203 C152.70682026 741.12750405 108.2253476 756.92798082 61.6875 764.5625 C60.77154053 764.71364258 59.85558105 764.86478516 58.91186523 765.02050781 C39.61314373 767.99548254 20.44057888 768.68606141 0.9375 768.625 C-0.3014502 768.62284485 -1.54040039 768.6206897 -2.81689453 768.61846924 C-20.55697355 768.56892394 -37.9676349 768.25882679 -55.5 765.3125 C-56.73862793 765.11382324 -57.97725586 764.91514648 -59.25341797 764.71044922 C-130.52687985 753.16804337 -198.5065109 722.58937944 -252.5 674.3125 C-253.22034424 673.67828125 -253.94068848 673.0440625 -254.68286133 672.390625 C-261.14900037 666.65274533 -267.33093702 660.66778941 -273.44116211 654.55664062 C-275.05890192 652.9410932 -276.68450636 651.33374966 -278.31054688 649.7265625 C-284.82632106 643.2458197 -290.80287382 636.53769933 -296.5 629.3125 C-297.50084453 628.09253385 -298.50435758 626.87474699 -299.51171875 625.66015625 C-311.43539522 611.09089362 -322.1781064 595.66906841 -331.5 579.3125 C-331.88043457 578.65701172 -332.26086914 578.00152344 -332.65283203 577.32617188 C-356.31500405 536.51932026 -372.11548082 492.0378476 -379.75 445.5 C-379.97671387 444.12606079 -379.97671387 444.12606079 -380.20800781 442.72436523 C-383.18302797 423.42534902 -383.87211513 404.25329236 -383.8125 384.75 C-383.81067719 383.51271149 -383.80885437 382.27542297 -383.80697632 381.00064087 C-383.7629156 363.24819169 -383.43376664 345.8555166 -380.5 328.3125 C-380.32307617 327.20922363 -380.14615234 326.10594727 -379.96386719 324.96923828 C-373.98382213 288.31951483 -363.48814337 252.8536087 -347.5 219.3125 C-347.07332031 218.41225098 -346.64664063 217.51200195 -346.20703125 216.58447266 C-331.42160842 185.62038523 -312.17548881 157.05155324 -289.5 131.3125 C-288.87464355 130.59956787 -288.24928711 129.88663574 -287.60498047 129.15209961 C-281.859188 122.67817766 -275.86311228 116.48938467 -269.74414062 110.37133789 C-268.1285932 108.75359808 -266.52124966 107.12799364 -264.9140625 105.50195312 C-258.43354445 98.98634202 -251.72738753 93.00660873 -244.5 87.3125 C-243.24523789 86.287793 -241.99236292 85.26076667 -240.7421875 84.23046875 C-226.12673573 72.33001428 -210.76699611 61.8246775 -194.5 52.3125 C-193.43990723 51.69060791 -193.43990723 51.69060791 -192.35839844 51.05615234 C-151.20314227 27.09798176 -106.48930146 11.74642071 -59.5625 4.0625 C-58.18179321 3.83578613 -58.18179321 3.83578613 -56.77319336 3.60449219 C-53.68664642 3.1276932 -50.59790275 2.70932429 -47.5 2.3125 C-46.82870056 2.22529694 -46.15740112 2.13809387 -45.46575928 2.04824829 C-30.32066902 0.14016081 -15.24899741 -0.04531459 0 0 Z M-75.5 39.3125 C-76.27843262 39.47411621 -77.05686523 39.63573242 -77.85888672 39.80224609 C-129.70252619 50.895041 -179.75560507 75.49402825 -220.5 109.3125 C-221.23984131 109.92496582 -221.23984131 109.92496582 -221.99462891 110.54980469 C-238.51160112 124.25721503 -255.15046441 138.76129587 -268.44140625 155.6953125 C-270.65698224 158.51207893 -272.97945004 161.21745123 -275.3125 163.9375 C-306.67298562 201.59916511 -329.2765416 247.98148299 -341.5 295.3125 C-341.81324219 296.4675 -342.12648438 297.6225 -342.44921875 298.8125 C-344.95816202 308.64993763 -346.6128158 318.60365763 -348.1875 328.625 C-348.35039017 329.65291656 -348.35039017 329.65291656 -348.51657104 330.70159912 C-348.83312917 332.71299642 -349.14252634 334.72535799 -349.44921875 336.73828125 C-349.62799561 337.90786377 -349.80677246 339.07744629 -349.9909668 340.2824707 C-351.30578105 350.0415321 -351.66707063 359.77955684 -351.703125 369.6171875 C-351.70882507 370.85759796 -351.71452515 372.09800842 -351.72039795 373.37600708 C-351.72978968 375.98959517 -351.73635854 378.60319479 -351.74023438 381.21679688 C-351.74988846 385.14214693 -351.78094832 389.06696097 -351.8125 392.9921875 C-351.87567413 408.04506083 -351.02022114 422.47480203 -348.5 437.3125 C-348.16901304 439.48303362 -347.83823306 441.65359883 -347.5078125 443.82421875 C-342.02303017 476.79106609 -331.54511533 509.46332658 -316.5 539.3125 C-316.02062988 540.27929688 -315.54125977 541.24609375 -315.04736328 542.2421875 C-303.84312863 564.7614801 -290.57963376 585.93980472 -274.5 605.3125 C-274.09168945 605.80572754 -273.68337891 606.29895508 -273.26269531 606.80712891 C-259.87174881 622.94277274 -245.73843606 639.16255101 -229.20703125 652.16015625 C-226.78367498 654.08695178 -224.45297247 656.09090352 -222.12841797 658.13476562 C-205.80179417 672.36901574 -187.18976565 683.50076596 -168.5 694.3125 C-167.45199219 694.92665771 -167.45199219 694.92665771 -166.3828125 695.55322266 C-130.797427 716.27636427 -88.53099935 728.7062053 -47.9453125 733.87011719 C-45.56718775 734.17547164 -43.19218618 734.50582598 -40.8203125 734.85644531 C-28.84211935 736.55190473 -16.91859625 736.6176727 -4.83691406 736.57324219 C-1.40151046 736.56258226 2.03336281 736.57316289 5.46875 736.5859375 C24.40681877 736.59892826 43.27699893 735.68023917 61.9375 732.25 C63.08669922 732.04012451 64.23589844 731.83024902 65.41992188 731.61401367 C100.43428667 724.87849409 133.85256447 712.57662514 165.5 696.3125 C166.44343262 695.83167969 167.38686523 695.35085938 168.35888672 694.85546875 C187.40118754 685.06812806 204.94538295 672.85135348 221.5 659.3125 C222.43585937 658.56871094 223.37171875 657.82492187 224.3359375 657.05859375 C240.18971143 644.36194672 255.8414939 629.98047193 268.3828125 613.984375 C270.29519215 611.57096599 272.28813116 609.25395351 274.32080078 606.94189453 C314.13856579 561.29158802 338.90961274 500.75162522 348.875 441.5625 C349.0026474 440.81108734 349.1302948 440.05967468 349.2618103 439.28549194 C352.18927108 421.84576298 352.71031824 404.62433522 352.74023438 386.96508789 C352.74987365 383.54483079 352.7809623 380.12519343 352.8125 376.70507812 C352.92286681 353.58499841 350.23897276 330.93012709 345.5 308.3125 C345.25757568 307.14485107 345.25757568 307.14485107 345.01025391 305.95361328 C333.25174168 250.99865614 306.36773686 200.23714118 270.5 157.3125 C269.67628906 156.301875 268.85257813 155.29125 268.00390625 154.25 C261.70282071 146.61652128 254.91489928 139.51806586 247.9375 132.5 C247.07543945 131.62875488 246.21337891 130.75750977 245.32519531 129.85986328 C239.35799162 123.9209027 233.06975496 118.5692277 226.5 113.3125 C225.46083798 112.43725298 224.42572434 111.55712385 223.3984375 110.66796875 C201.38258227 91.75341821 175.69054101 76.67962831 149.5 64.3125 C148.69304687 63.92980957 147.88609375 63.54711914 147.0546875 63.15283203 C130.34861015 55.32658998 113.12275462 49.63386104 95.5 44.3125 C94.18733154 43.90475342 94.18733154 43.90475342 92.84814453 43.48876953 C78.43239926 39.0434263 63.45006111 36.93268263 48.5859375 34.546875 C47.90527725 34.43670044 47.224617 34.32652588 46.52333069 34.2130127 C44.51756636 33.89630259 42.51041966 33.59813953 40.5 33.3125 C39.82281418 33.21628357 39.14562836 33.12006714 38.44792175 33.02093506 C31.84783899 32.18277277 25.27510746 32.13367145 18.62890625 32.109375 C17.39373764 32.10367493 16.15856903 32.09797485 14.88597107 32.09210205 C12.27123867 32.08268319 9.65649456 32.0761305 7.04174805 32.07226562 C3.13372559 32.0626748 -0.7737439 32.03166893 -4.68164062 32 C-28.67426167 31.89904368 -52.02281785 34.39342842 -75.5 39.3125 Z " fill="#010000" transform="translate(383.5,-0.3125)"/>
<path d="M0 0 C166.32 0 332.64 0 504 0 C508.50568541 9.01137081 508.50568541 9.01137081 509.81640625 12.953125 C510.10427002 13.81309082 510.39213379 14.67305664 510.6887207 15.55908203 C510.97706787 16.44708496 511.26541504 17.33508789 511.5625 18.25 C511.86696045 19.18312012 512.1714209 20.11624023 512.48510742 21.07763672 C526.11086596 63.28846594 521.84818535 109.11055581 502.16894531 148.75341797 C494.18483758 164.09797923 482.93861666 177.59058676 471 190 C470.48002441 190.54188965 469.96004883 191.0837793 469.42431641 191.64208984 C462.34193037 198.98008079 455.04709894 205.71511387 447 212 C445.74121577 213.02093847 444.48347808 214.0431681 443.2265625 215.06640625 C419.43738995 234.23006079 393.92010544 250.00666513 365 260 C363.79633789 260.41958984 363.79633789 260.41958984 362.56835938 260.84765625 C334.77240633 270.35015382 305.21009189 273.37565485 275.9855957 273.42553711 C272.70122998 273.4374502 269.41873933 273.48685823 266.13476562 273.53710938 C251.77001847 273.64611458 238.82694124 271.83259267 225 268 C224.12771255 267.76547119 223.25542511 267.53094238 222.35670471 267.28930664 C180.66852551 256.07717326 143.0052471 233.85477411 112 204 C111.47631836 203.49823242 110.95263672 202.99646484 110.41308594 202.47949219 C103.39221383 195.71945743 97.0032208 188.69561815 91 181 C89.81664062 179.52466797 89.81664062 179.52466797 88.609375 178.01953125 C67.66744177 151.68258474 53.2496014 121.53197098 42 90 C41.70996094 89.20239258 41.41992188 88.40478516 41.12109375 87.58300781 C33.58073672 66.77417228 25.93635026 42.33664459 27 20 C25.56720703 20.01740234 25.56720703 20.01740234 24.10546875 20.03515625 C16.33431699 20.08939161 8.73195186 19.90018566 1 19 C0.82715323 17.52154276 0.6621554 16.04216801 0.5 14.5625 C0.4071875 13.73878906 0.314375 12.91507812 0.21875 12.06640625 C-0.06749911 8.05380714 0 4.02279631 0 0 Z M49 24 C48.98709554 44.58616602 48.98709554 44.58616602 53 64 C53.28488281 64.98033203 53.56976563 65.96066406 53.86328125 66.97070312 C65.42355289 105.95688671 86.29638412 140.7148113 112 172 C112.44939941 172.5470459 112.89879883 173.0940918 113.36181641 173.65771484 C131.43125484 195.5346192 151.14000386 214.04128061 176 228 C176.62890137 228.36158203 177.25780273 228.72316406 177.90576172 229.09570312 C208.52824138 246.62960464 241.01759776 255.20928253 276.125 255.3125 C277.4504332 255.31692612 277.4504332 255.31692612 278.80264282 255.32144165 C293.57189943 255.33263213 307.53373762 254.15594754 322 251 C323.25425781 250.74992188 324.50851562 250.49984375 325.80078125 250.2421875 C328.8991162 249.58393319 331.94188443 248.82408989 335 248 C336.24652344 247.67644531 337.49304688 247.35289062 338.77734375 247.01953125 C356.63278592 242.19811425 373.72207046 234.72433695 390 226 C390.65661621 225.64969727 391.31323242 225.29939453 391.98974609 224.93847656 C438.95147691 199.69413636 478.19669019 162.83817638 494.30078125 111.01953125 C500.26400937 90.660521 500.10991014 69.81329484 497.75 48.875 C497.64091309 47.88089111 497.53182617 46.88678223 497.41943359 45.86254883 C496.42465407 38.03143056 494.39919946 31.79739823 492 24 C345.81 24 199.62 24 49 24 Z " fill="#030201" transform="translate(91,424)"/>
<path d="M0 0 C-1.41667108 4.4083005 -3.58453093 6.91113559 -6.8125 10.1875 C-15.27133817 19.22085463 -18.51506403 27.71044841 -18.27734375 40 C-17.78986141 50.14739352 -13.58532716 58.8239425 -6.1875 65.6796875 C2.90888836 73.05216355 12.49494661 75.24785488 24.01904297 74.26171875 C33.51575791 73.00703815 40.28714526 68.60466149 46.87890625 61.890625 C49.01372942 59.98776236 50.20915353 59.379707 53 59 C59.91327508 71.15782859 60.49062342 83.54472751 60.39111328 97.19165039 C60.37508776 99.79822637 60.39101046 102.40323762 60.41015625 105.00976562 C60.40817221 106.72135747 60.40432523 108.43294838 60.3984375 110.14453125 C60.40451019 110.89612015 60.41058289 111.64770905 60.4168396 112.42207336 C60.3136997 120.68573225 58.59114763 127.51387932 57 136 C-3.06 136 -63.12 136 -125 136 C-135.36667319 115.26665362 -131.39773733 84.09081349 -124.71484375 62.765625 C-119.86394461 48.37214368 -112.24968497 35.20678628 -102 24 C-101.23042969 23.14921875 -100.46085937 22.2984375 -99.66796875 21.421875 C-73.70962397 -5.92035569 -34.82298205 -15.50155706 0 0 Z " fill="#FEFEFE" transform="translate(536,203)"/>
<path d="M0 0 C0.66483398 0.30921387 1.32966797 0.61842773 2.01464844 0.93701172 C19.27035191 9.07209477 41.96730661 24.34572897 52 41 C50.87365719 44.37902844 50.15600731 44.91198124 47.37890625 46.96875 C46.61763428 47.53432617 45.8563623 48.09990234 45.07202148 48.68261719 C44.24387939 49.28235352 43.4157373 49.88208984 42.5625 50.5 C41.70793213 51.12293945 40.85336426 51.74587891 39.97290039 52.38769531 C32.29184458 57.91607602 24.38722858 62.96224382 16.20751953 67.71630859 C14.75098198 68.56329758 13.29870157 69.4176558 11.85107422 70.27978516 C-6.24430504 81.0460188 -25.8453378 88.97437934 -46 95 C-47.46759766 95.43892578 -47.46759766 95.43892578 -48.96484375 95.88671875 C-59.433956 98.72554546 -70.29725115 100.29302558 -81 102 C-82.08047607 102.17942139 -83.16095215 102.35884277 -84.27416992 102.54370117 C-88.51224429 103.06273407 -92.64181202 103.1619751 -96.90625 103.16796875 C-97.74861206 103.17129715 -98.59097412 103.17462555 -99.4588623 103.17805481 C-101.2372178 103.18309645 -103.01558268 103.18546399 -104.79394531 103.18530273 C-107.46435937 103.18747106 -110.13434732 103.20560603 -112.8046875 103.22460938 C-134.08924 103.29576744 -157.64824919 100.6758754 -177 91 C-176.51128067 84.21901935 -175.09822909 78.70145244 -172.5 72.4375 C-172.14542725 71.57125 -171.79085449 70.705 -171.42553711 69.8125 C-156.89579264 35.20788892 -130.66564849 9.20269977 -96 -5 C-91.73830097 -6.59774322 -87.40529519 -7.86069952 -83 -9 C-82.2678125 -9.21140625 -81.535625 -9.4228125 -80.78125 -9.640625 C-53.7162785 -17.15867264 -24.76989382 -11.76762869 0 0 Z " fill="#F8BDDC" transform="translate(476,576)"/>
<path d="M0 0 C1.99670523 -0.00216432 3.99337137 -0.02060986 5.98999023 -0.03930664 C18.12598639 -0.05746524 28.84129514 1.51060819 40.21459961 5.74780273 C41.16052979 6.09786377 42.10645996 6.4479248 43.08105469 6.80859375 C56.35185401 11.87925767 67.94551402 18.5659834 78.46459961 28.18530273 C79.3037793 28.94327148 80.14295898 29.70124023 81.00756836 30.48217773 C102.98416002 51.33438564 117.76034178 83.0790953 118.64160156 113.43212891 C118.66774471 114.94742192 118.6879191 116.46282682 118.70288086 117.97827148 C118.71262939 118.79864395 118.72237793 119.61901642 118.73242188 120.46424866 C118.94314397 142.76167492 118.1772344 161.27497924 109.46459961 182.18530273 C40.16459961 182.18530273 -29.13540039 182.18530273 -100.53540039 182.18530273 C-103.9140852 175.42793312 -103.9140852 175.42793312 -104.63305664 171.97045898 C-104.79483398 171.20024414 -104.95661133 170.4300293 -105.12329102 169.63647461 C-105.27991211 168.84821289 -105.4365332 168.05995117 -105.59790039 167.24780273 C-105.75838867 166.4943457 -105.91887695 165.74088867 -106.08422852 164.96459961 C-108.718733 152.13064802 -109.97714183 139.34517191 -109.97290039 126.24780273 C-109.9739679 125.53729767 -109.9750354 124.8267926 -109.97613525 124.09475708 C-109.93487045 104.89617316 -106.27485384 86.78759814 -98.53540039 69.18530273 C-98.07391602 68.1347168 -97.61243164 67.08413086 -97.13696289 66.00170898 C-90.07789682 51.00606863 -79.4428479 36.58904574 -66.53540039 26.18530273 C-65.7993457 25.55108398 -65.06329102 24.91686523 -64.30493164 24.26342773 C-46.15851257 8.98846486 -23.69734068 -0.00286719 0 0 Z M-66.44946289 54.60717773 C-77.45401399 68.2083083 -84.42336278 84.31055589 -88.53540039 101.18530273 C-88.78161133 102.14049805 -89.02782227 103.09569336 -89.28149414 104.07983398 C-92.84255447 120.85365607 -93.34784776 146.560408 -85.53540039 162.18530273 C-25.47540039 162.18530273 34.58459961 162.18530273 96.46459961 162.18530273 C99.0501766 149.23785897 99.0501766 149.23785897 99.89819336 136.40014648 C99.90343521 135.57051895 99.90867706 134.74089142 99.91407776 133.88612366 C99.92039922 132.16156109 99.91929259 130.43695481 99.91064453 128.71240234 C99.90209429 126.12118922 99.93109963 123.5321619 99.96264648 120.94116211 C100.01725689 108.0765117 98.56681627 96.74469758 92.46459961 85.18530273 C88.56797899 86.50447117 86.32639331 88.07452519 83.46459961 90.99780273 C75.40534696 98.28697853 66.10648513 100.95962743 55.3527832 100.77514648 C45.46306914 100.22080639 37.45846305 96.23262633 30.37084961 89.42749023 C22.89677249 80.63626019 20.98896171 70.09217373 21.14428711 58.85327148 C21.57398474 53.93270961 22.91190395 50.36567542 25.46459961 46.18530273 C26.02147461 45.21592773 26.57834961 44.24655273 27.15209961 43.24780273 C30.03091093 39.43532288 33.24698348 36.01134128 36.53881836 32.55249023 C38.37585914 30.29438332 39.07888912 29.02256292 39.46459961 26.18530273 C0.16160913 8.70744918 -39.26950969 23.517126 -66.44946289 54.60717773 Z " fill="#030202" transform="translate(496.535400390625,176.814697265625)"/>
<path d="M0 0 C0 4.04863987 -1.29319268 5.01557142 -4 8 C-5.11819998 8.90430701 -6.2437576 9.79956251 -7.375 10.6875 C-14.73163979 16.84434446 -19.15765894 26.35486496 -20.3515625 35.7734375 C-20.86933001 46.15603863 -17.34596508 56.24394245 -10.7265625 64.2890625 C-7.51024099 67.47627702 -3.94916852 69.81433949 0 72 C0.60328125 72.34160156 1.2065625 72.68320312 1.828125 73.03515625 C10.44968881 77.0648002 22.02403696 76.08481968 30.796875 72.9765625 C36.85411553 70.29161546 41.70506059 66.62172305 46.45703125 62.0390625 C46.96621094 61.69617188 47.47539062 61.35328125 48 61 C48.99 61.33 49.98 61.66 51 62 C52.09765625 64.95703125 52.09765625 64.95703125 53.0625 68.8125 C53.54396484 70.67841797 53.54396484 70.67841797 54.03515625 72.58203125 C56.27895324 82.46259071 57.36008209 91.9885515 57.3125 102.125 C57.31048584 103.29409912 57.30847168 104.46319824 57.30639648 105.66772461 C57.0514479 127.89710421 57.0514479 127.89710421 53 136 C2.18 136 -48.64 136 -101 136 C-109.6010173 110.19694811 -108.26764029 76.08781649 -98 51 C-97.43686323 49.45393944 -96.87938465 47.9058039 -96.328125 46.35546875 C-88.8893322 26.13772553 -76.70644746 8.76485401 -57 -1 C-40.09939771 -8.499185 -16.33604443 -9.80162666 0 0 Z " fill="#FEFEFE" transform="translate(193,202)"/>
<path d="M0 0 C0.81339844 0.69996094 1.62679687 1.39992187 2.46484375 2.12109375 C3.28855469 2.81074219 4.11226562 3.50039062 4.9609375 4.2109375 C30.0153934 25.82578011 45.28168504 59.40158178 48.46484375 92.12109375 C48.72312433 97.51434849 48.75949132 102.90984278 48.77734375 108.30859375 C48.78127136 109.44234436 48.78127136 109.44234436 48.78527832 110.59899902 C48.78993193 123.15907841 47.70431425 134.94090373 44.46484375 147.12109375 C44.27809082 147.848125 44.09133789 148.57515625 43.89892578 149.32421875 C40.97053169 160.61540581 40.97053169 160.61540581 39.46484375 162.12109375 C37.12457251 162.21871599 34.81385994 162.25106979 32.47312927 162.24134827 C31.73315187 162.24220269 30.99317447 162.24305712 30.23077351 162.24393743 C27.73251962 162.24559444 25.23433177 162.24006728 22.73608398 162.23461914 C20.95270794 162.23433729 19.16933178 162.23449496 17.38595581 162.23506165 C12.52872184 162.23534971 7.67151234 162.22945163 2.81428409 162.22248769 C-2.25596573 162.21625554 -7.32621606 162.21565046 -12.39646912 162.21446228 C-22.00479318 162.21134855 -31.61310593 162.20313461 -41.221425 162.19311279 C-52.15715153 162.18195294 -63.09287859 162.17644153 -74.0286094 162.17141736 C-96.53079797 162.16095203 -119.03297647 162.14335179 -141.53515625 162.12109375 C-142.34262616 160.03557154 -143.14876827 157.9495352 -143.9543457 155.86328125 C-144.40340775 154.7016748 -144.85246979 153.54006836 -145.31513977 152.34326172 C-146.59865735 148.9533819 -147.72555364 145.60442164 -148.72265625 142.12109375 C-149.17705078 140.57421875 -149.17705078 140.57421875 -149.640625 138.99609375 C-152.20810237 127.87409571 -152.90973904 116.98572776 -152.84765625 105.62109375 C-152.84342651 104.50108978 -152.84342651 104.50108978 -152.83911133 103.35845947 C-152.64726546 69.44065242 -143.74785499 36.56083591 -121.53515625 10.12109375 C-120.92671875 9.33992188 -120.31828125 8.55875 -119.69140625 7.75390625 C-107.94820297 -6.62654184 -89.10605641 -16.47775297 -70.72998047 -18.68847656 C-45.02426936 -20.91878298 -20.29320163 -16.95908952 0 0 Z M-104.53515625 20.12109375 C-105.07785156 20.65089844 -105.62054688 21.18070313 -106.1796875 21.7265625 C-114.72694051 30.88601544 -120.72433312 43.21894251 -124.75976562 54.94726562 C-125.29506818 56.44800048 -125.86659149 57.9361326 -126.46679688 59.41210938 C-132.44971539 74.17469529 -133.16667489 88.13565323 -133.09765625 103.87109375 C-133.09433289 104.83107269 -133.09100952 105.79105164 -133.08758545 106.78012085 C-133.0386236 124.80988318 -133.0386236 124.80988318 -128.53515625 142.12109375 C-77.71515625 142.12109375 -26.89515625 142.12109375 25.46484375 142.12109375 C31.37583662 118.47712226 31.77413439 93.63568002 24.46484375 70.12109375 C23.80484375 69.13109375 23.14484375 68.14109375 22.46484375 67.12109375 C19.33413969 68.53903595 16.95875358 70.28306662 14.33984375 72.49609375 C4.27948399 80.47786678 -7.01883369 82.1939214 -19.53515625 81.12109375 C-27.27089905 79.12217064 -34.51589766 75.45440716 -39.53515625 69.12109375 C-45.76569774 58.50250554 -49.77155119 48.65452591 -46.8515625 36.20703125 C-43.53026192 26.42228681 -38.48527422 19.43266904 -30.48828125 12.9453125 C-28.51597589 11.1031793 -27.56129986 9.59366318 -26.53515625 7.12109375 C-49.39461946 -11.50513553 -86.37050319 2.27345034 -104.53515625 20.12109375 Z " fill="#030202" transform="translate(220.53515625,195.87890625)"/>
</svg>
